<svg width="25" height="25" viewBox="0 0 25 25" fill="none" xmlns="http://www.w3.org/2000/svg">
<path d="M2.375 19.25V12.5C2.375 9.81468 3.44174 7.23935 5.34054 5.34054C7.23935 3.44174 9.81468 2.375 12.5 2.375C15.1853 2.375 17.7606 3.44174 19.6595 5.34054C21.5583 7.23935 22.625 9.81468 22.625 12.5V19.25M22.625 20.375C22.625 20.9717 22.3879 21.544 21.966 21.966C21.544 22.3879 20.9717 22.625 20.375 22.625H19.25C18.6533 22.625 18.081 22.3879 17.659 21.966C17.2371 21.544 17 20.9717 17 20.375V17C17 16.4033 17.2371 15.831 17.659 15.409C18.081 14.9871 18.6533 14.75 19.25 14.75H22.625V20.375ZM2.375 20.375C2.375 20.9717 2.61205 21.544 3.03401 21.966C3.45597 22.3879 4.02826 22.625 4.625 22.625H5.75C6.34674 22.625 6.91903 22.3879 7.34099 21.966C7.76295 21.544 8 20.9717 8 20.375V17C8 16.4033 7.76295 15.831 7.34099 15.409C6.91903 14.9871 6.34674 14.75 5.75 14.75H2.375V20.375Z" stroke="#5E3F89" stroke-width="3" stroke-linecap="round" stroke-linejoin="round"/>
</svg>
