<svg width="28" height="28" viewBox="0 0 28 28" fill="none" xmlns="http://www.w3.org/2000/svg">
<path d="M24.3131 5.37827C23.7173 4.7821 23.0098 4.30919 22.2311 3.98653C21.4524 3.66387 20.6177 3.4978 19.7748 3.4978C18.9319 3.4978 18.0973 3.66387 17.3186 3.98653C16.5399 4.30919 15.8324 4.7821 15.2365 5.37827L13.9998 6.61493L12.7631 5.37827C11.5595 4.17463 9.92702 3.49843 8.22481 3.49843C6.52261 3.49843 4.89012 4.17463 3.68648 5.37827C2.48284 6.58191 1.80664 8.21439 1.80664 9.9166C1.80664 11.6188 2.48284 13.2513 3.68648 14.4549L13.9998 24.7683L24.3131 14.4549C24.9093 13.8591 25.3822 13.1515 25.7049 12.3728C26.0275 11.5941 26.1936 10.7595 26.1936 9.9166C26.1936 9.0737 26.0275 8.23905 25.7049 7.46035C25.3822 6.68165 24.9093 5.97415 24.3131 5.37827Z" stroke="#5E3F89" stroke-width="3" stroke-linecap="round" stroke-linejoin="round"/>
</svg>
